<svg xmlns="http://www.w3.org/2000/svg" viewBox="0 0 320 160" width="320" height="160"><rect x="7" y="73" width="6" height="14" rx="2" fill="#05a893" transform="rotate(-30 10 80)"/><circle cx="42" cy="124" r="5" fill="#cc2e72"/><rect x="65" y="25" width="6" height="14" rx="2" fill="#ebb806" transform="rotate(15 68 32)"/><rect x="93" y="109" width="6" height="14" rx="2" fill="#ebb806" transform="rotate(-55 96 116)"/><circle cx="120" cy="54" r="5" fill="#cc2e72"/><circle cx="142" cy="10" r="5" fill="#05a893"/><rect x="177" y="15" width="6" height="14" rx="2" fill="#cc2e72" transform="rotate(35 180 22)"/><circle cx="206" cy="66" r="5" fill="#ebb806"/><circle cx="230" cy="120" r="5" fill="#05a893"/><rect x="253" y="31" width="6" height="14" rx="2" fill="#ebb806" transform="rotate(-40 256 38)"/><rect x="281" y="121" width="6" height="14" rx="2" fill="#05a893" transform="rotate(55 284 128)"/><circle cx="308" cy="88" r="5" fill="#cc2e72"/></svg>
